<?xml version="1.0" encoding="UTF-8"?>
<svg xmlns="http://www.w3.org/2000/svg" xmlns:xlink="http://www.w3.org/1999/xlink" width="85px" height="85px" viewBox="0 0 85 85" version="1.1">
<g id="surface1">
<path style=" stroke:none;fill-rule:nonzero;fill:rgb(0%,0%,0%);fill-opacity:1;" d="M 42.539062 5.269531 C 41.730469 5.265625 40.949219 5.535156 40.316406 6.035156 L 8.449219 30.816406 C 6.90625 32.011719 6.621094 34.238281 7.820312 35.785156 C 8.394531 36.53125 9.25 37.019531 10.1875 37.136719 C 11.121094 37.253906 12.070312 36.988281 12.816406 36.40625 L 14.328125 35.230469 L 14.328125 76.171875 C 14.320312 78.132812 15.898438 79.722656 17.859375 79.730469 L 33.167969 79.730469 L 33.167969 72.175781 C 33.167969 68.25 36.328125 65.09375 40.257812 65.09375 L 44.742188 65.09375 C 48.671875 65.09375 51.832031 68.25 51.832031 72.175781 L 51.832031 79.730469 L 67.140625 79.730469 C 69.101562 79.722656 70.679688 78.132812 70.671875 76.171875 L 70.671875 35.199219 L 72.210938 36.40625 C 73.757812 37.605469 75.976562 37.324219 77.179688 35.785156 C 78.378906 34.238281 78.09375 32.011719 76.550781 30.816406 L 44.683594 6.035156 C 44.070312 5.550781 43.316406 5.285156 42.539062 5.269531 Z M 42.539062 5.269531 "/>
</g>
</svg>
