<?xml version="1.0" encoding="UTF-8"?>
<svg xmlns="http://www.w3.org/2000/svg" xmlns:xlink="http://www.w3.org/1999/xlink" width="121px" height="121px" viewBox="0 0 121 120" version="1.1">
<g id="surface1">
<path style=" stroke:none;fill-rule:nonzero;fill:rgb(10.196078%,10.196078%,10.196078%);fill-opacity:1;" d="M 60.503906 7.828125 C 89.546875 7.859375 113.082031 31.199219 113.113281 60.003906 C 113.140625 68.398438 111.097656 76.671875 107.167969 84.109375 C 103.363281 91.300781 97.9375 97.523438 91.3125 102.296875 C 72.921875 115.472656 48.085938 115.472656 29.695312 102.296875 C 23.0625 97.527344 17.636719 91.300781 13.832031 84.109375 C 9.902344 76.671875 7.863281 68.398438 7.890625 60.003906 C 7.921875 31.199219 31.460938 7.859375 60.503906 7.828125 M 60.503906 0 C 27.089844 0 0 26.863281 0 60.003906 C 0 93.140625 27.089844 120.003906 60.503906 120.003906 C 93.917969 120.003906 121.003906 93.140625 121.003906 60.003906 C 121.003906 26.863281 93.917969 0 60.503906 0 Z M 60.503906 0 "/>
<path style=" stroke:none;fill-rule:nonzero;fill:rgb(10.196078%,10.196078%,10.196078%);fill-opacity:1;" d="M 64.328125 75.695312 C 77.421875 75.714844 88.03125 86.238281 88.042969 99.222656 L 88.042969 104.441406 C 71.144531 114.722656 49.855469 114.722656 32.957031 104.441406 L 32.957031 99.222656 C 32.96875 86.238281 43.578125 75.714844 56.671875 75.695312 L 64.328125 75.695312 M 64.328125 67.871094 L 56.671875 67.871094 C 39.214844 67.871094 25.0625 81.910156 25.0625 99.222656 L 25.0625 108.613281 C 46.214844 123.773438 74.785156 123.773438 95.9375 108.613281 L 95.9375 99.222656 C 95.9375 81.910156 81.785156 67.871094 64.328125 67.871094 Z M 64.328125 67.871094 "/>
<path style=" stroke:none;fill-rule:nonzero;fill:rgb(10.196078%,10.196078%,10.196078%);fill-opacity:1;" d="M 60.503906 38.25 C 65.972656 38.25 70.40625 42.648438 70.402344 48.070312 C 70.402344 53.496094 65.96875 57.890625 60.5 57.890625 C 55.03125 57.886719 50.597656 53.488281 50.601562 48.066406 C 50.605469 42.644531 55.039062 38.253906 60.503906 38.25 M 60.503906 30.425781 C 50.675781 30.421875 42.707031 38.320312 42.703125 48.066406 C 42.703125 57.816406 50.671875 65.71875 60.5 65.714844 C 70.328125 65.714844 78.292969 57.8125 78.289062 48.066406 C 78.289062 38.324219 70.324219 30.425781 60.503906 30.425781 Z M 60.503906 30.425781 "/>
</g>
</svg>
