<?xml version="1.0" encoding="UTF-8"?>
<svg xmlns="http://www.w3.org/2000/svg" xmlns:xlink="http://www.w3.org/1999/xlink" width="70px" height="70px" viewBox="0 0 70 70" version="1.1">
<g id="surface1">
<path style=" stroke:none;fill-rule:nonzero;fill:rgb(0%,0%,0%);fill-opacity:1;" d="M 68.605469 26.847656 C 67.679688 25.917969 66.550781 25.453125 65.226562 25.453125 L 44.542969 25.453125 L 44.542969 4.773438 C 44.542969 3.445312 44.078125 2.320312 43.152344 1.390625 C 42.222656 0.464844 41.097656 0 39.769531 0 L 30.226562 0 C 28.902344 0 27.773438 0.464844 26.847656 1.390625 C 25.917969 2.320312 25.453125 3.445312 25.453125 4.773438 L 25.453125 25.453125 L 4.773438 25.453125 C 3.445312 25.453125 2.320312 25.917969 1.390625 26.847656 C 0.464844 27.773438 0 28.902344 0 30.226562 L 0 39.773438 C 0 41.097656 0.464844 42.226562 1.390625 43.152344 C 2.320312 44.082031 3.445312 44.542969 4.773438 44.542969 L 25.453125 44.542969 L 25.453125 65.226562 C 25.453125 66.550781 25.917969 67.679688 26.84375 68.609375 C 27.773438 69.535156 28.902344 70 30.226562 70 L 39.769531 70 C 41.097656 70 42.222656 69.535156 43.152344 68.609375 C 44.082031 67.679688 44.542969 66.550781 44.542969 65.226562 L 44.542969 44.542969 L 65.226562 44.542969 C 66.550781 44.542969 67.679688 44.082031 68.605469 43.152344 C 69.535156 42.226562 70 41.097656 70 39.773438 L 70 30.226562 C 70 28.902344 69.535156 27.773438 68.605469 26.847656 Z M 68.605469 26.847656 "/>
</g>
</svg>
